
<svg width="100%" height="100%" viewBox="0 0 501 500" version="1.1" xmlns="http://www.w3.org/2000/svg" xmlns:xlink="http://www.w3.org/1999/xlink" xml:space="preserve" xmlns:serif="http://www.serif.com/" style="fill-rule:evenodd;clip-rule:evenodd;stroke-linejoin:round;stroke-miterlimit:2;">
    <g transform="matrix(1,0,0,1,-229.306,-287.951)">
        <g transform="matrix(0.93654,0,0,0.93654,78.7856,225.849)">
            <rect x="160.72" y="66.31" width="533.88" height="533.88" style="fill:none;"/>
            <clipPath id="_clip1">
                <rect x="160.72" y="66.31" width="533.88" height="533.88"/>
            </clipPath>
            <g clip-path="url(#_clip1)">
                <g transform="matrix(1.06776,0,0,1.06776,-84.1241,-241.153)">
                    <rect x="0" y="0" width="2000" height="2000" style="fill:transparent; fill-rule:nonzero; color:red !important; stroke:red !important;"/>
                    <path d="M481.513,411.464C480.295,409.353 478.317,409.353 477.1,411.464L444.46,467.992C443.242,470.104 444.23,471.816 446.668,471.816L458.231,471.816C460.668,471.816 463.632,470.104 464.852,467.992L477.1,446.773C478.317,444.662 480.295,444.662 481.513,446.773L529.379,529.693C530.598,531.805 532.573,531.805 533.791,529.696L539.574,519.684C540.793,517.573 540.794,514.152 539.574,512.039L481.513,411.464Z" style="fill-rule:nonzero;fill:white"/>
                    <path d="M554.866,546.165L549.086,556.178C547.867,558.287 547.867,561.709 549.086,563.822L557.361,578.155C558.577,580.267 557.591,581.979 555.153,581.979L459.401,581.979C456.964,581.979 455.975,583.689 457.194,585.802L462.977,595.81C464.194,597.921 467.159,599.632 469.597,599.632L585.741,599.632C588.176,599.632 589.165,597.921 587.947,595.81L559.281,546.165C558.062,544.057 556.084,544.057 554.866,546.165Z" style="fill-rule:nonzero;fill:white"/>
                    <path d="M493.76,607.869L481.513,629.088C480.295,631.199 478.317,631.199 477.1,629.088L429.213,546.165C427.992,544.057 426.018,544.058 424.801,546.17L419.035,556.173C417.817,558.285 417.817,561.709 419.035,563.822L477.1,664.396C478.317,666.507 480.295,666.507 481.513,664.396L514.151,607.869C515.367,605.758 514.382,604.045 511.944,604.045L500.381,604.045C497.943,604.045 494.979,605.758 493.76,607.869Z" style="fill-rule:nonzero;fill:white"/>
                    <path d="M526.2,480.052L531.982,490.06C533.201,492.172 536.166,493.883 538.603,493.883L555.153,493.883C557.591,493.883 558.577,495.595 557.361,497.706L513.466,573.74C512.249,575.854 513.235,577.564 515.675,577.564L527.237,577.564C529.675,577.564 532.637,575.854 533.854,573.74L587.947,480.052C589.165,477.939 588.176,476.229 585.741,476.229L528.407,476.229C525.971,476.229 524.981,477.939 526.2,480.052Z" style="fill-rule:nonzero;fill:white"/>
                    <path d="M489.163,476.229L372.872,476.229C370.435,476.229 369.447,477.939 370.666,480.052L399.331,529.693C400.551,531.805 402.524,531.804 403.742,529.693L409.509,519.686C410.726,517.576 410.725,514.152 409.505,512.039L401.229,497.706C400.012,495.595 401,493.883 403.437,493.883L499.359,493.883C501.797,493.883 502.783,492.172 501.565,490.06L495.783,480.052C494.563,477.939 491.6,476.229 489.163,476.229Z" style="fill-rule:nonzero;fill:white"/>
                    <path d="M401.229,578.155L445.144,502.118C446.364,500.008 445.375,498.297 442.938,498.297L431.374,498.297C428.938,498.297 425.974,500.008 424.756,502.12L370.666,595.81C369.447,597.921 370.435,599.632 372.872,599.632L430.184,599.632C432.619,599.632 433.608,597.921 432.389,595.81L426.609,585.802C425.39,583.689 422.425,581.979 419.987,581.979L403.437,581.979C401,581.979 400.012,580.267 401.229,578.155Z" style="fill-rule:nonzero;fill:white"/>
                    <path d="M304.866,296.165L299.086,306.178C297.867,308.287 297.867,311.709 299.086,313.822L307.361,328.155C308.577,330.267 307.591,331.979 305.153,331.979L209.401,331.979C206.964,331.979 205.975,333.689 207.194,335.802L212.977,345.81C214.194,347.921 217.159,349.632 219.597,349.632L335.741,349.632C338.176,349.632 339.165,347.921 337.947,345.81L309.281,296.165C308.062,294.057 306.084,294.057 304.866,296.165Z" style="fill-rule:nonzero;fill:white"/>
                    <path d="M243.76,357.869L231.513,379.088C230.295,381.199 228.317,381.199 227.1,379.088L179.213,296.165C177.992,294.057 176.018,294.058 174.801,296.17L169.035,306.173C167.817,308.285 167.817,311.709 169.035,313.822L227.1,414.396C228.317,416.507 230.295,416.507 231.513,414.396L264.151,357.869C265.368,355.758 264.382,354.045 261.944,354.045L250.381,354.045C247.943,354.045 244.979,355.758 243.76,357.869Z" style="fill-rule:nonzero;fill:white"/>
                    <path d="M276.2,230.052L281.982,240.06C283.201,242.172 286.166,243.883 288.603,243.883L305.153,243.883C307.591,243.883 308.577,245.595 307.361,247.706L263.467,323.74C262.249,325.854 263.235,327.564 265.675,327.564L277.237,327.564C279.675,327.564 282.637,325.854 283.854,323.74L337.947,230.052C339.165,227.939 338.176,226.229 335.741,226.229L278.407,226.229C275.971,226.229 274.981,227.939 276.2,230.052Z" style="fill-rule:nonzero;fill:white"/>
                    <path d="M804.866,296.165L799.086,306.178C797.867,308.287 797.867,311.709 799.086,313.822L807.361,328.155C808.577,330.267 807.591,331.979 805.153,331.979L709.401,331.979C706.964,331.979 705.975,333.689 707.194,335.802L712.977,345.81C714.194,347.921 717.159,349.632 719.597,349.632L835.741,349.632C838.176,349.632 839.165,347.921 837.947,345.81L809.281,296.165C808.062,294.057 806.084,294.057 804.866,296.165Z" style="fill-rule:nonzero;fill:white"/>
                    <path d="M743.76,357.869L731.513,379.088C730.295,381.199 728.317,381.199 727.1,379.088L679.213,296.165C677.992,294.057 676.018,294.058 674.801,296.17L669.035,306.173C667.817,308.285 667.817,311.709 669.035,313.822L727.1,414.396C728.317,416.507 730.295,416.507 731.513,414.396L764.151,357.869C765.368,355.758 764.382,354.045 761.944,354.045L750.381,354.045C747.943,354.045 744.979,355.758 743.76,357.869Z" style="fill-rule:nonzero;fill:white"/>
                    <path d="M651.229,328.155L695.144,252.118C696.364,250.008 695.375,248.297 692.938,248.297L681.374,248.297C678.938,248.297 675.974,250.008 674.756,252.12L620.666,345.81C619.447,347.921 620.435,349.632 622.872,349.632L680.184,349.632C682.619,349.632 683.608,347.921 682.389,345.81L676.609,335.802C675.39,333.689 672.425,331.979 669.987,331.979L653.437,331.979C651,331.979 650.012,330.267 651.229,328.155Z" style="fill-rule:nonzero;fill:white"/>
                    <path d="M231.513,661.464C230.295,659.353 228.317,659.353 227.1,661.464L194.46,717.992C193.242,720.104 194.23,721.816 196.668,721.816L208.231,721.816C210.668,721.816 213.632,720.104 214.852,717.992L227.1,696.773C228.317,694.662 230.295,694.662 231.513,696.773L279.379,779.693C280.598,781.805 282.573,781.805 283.791,779.696L289.574,769.684C290.793,767.573 290.794,764.152 289.574,762.039L231.513,661.464Z" style="fill-rule:nonzero;fill:white"/>
                    <path d="M276.2,730.052L281.982,740.06C283.201,742.172 286.166,743.883 288.603,743.883L305.153,743.883C307.591,743.883 308.577,745.595 307.361,747.706L263.467,823.74C262.249,825.854 263.235,827.564 265.675,827.564L277.237,827.564C279.675,827.564 282.637,825.854 283.854,823.74L337.947,730.052C339.165,727.939 338.176,726.229 335.741,726.229L278.407,726.229C275.971,726.229 274.981,727.939 276.2,730.052Z" style="fill-rule:nonzero;fill:white"/>
                    <path d="M239.163,726.229L122.872,726.229C120.435,726.229 119.447,727.939 120.666,730.052L149.331,779.693C150.551,781.805 152.524,781.804 153.742,779.693L159.509,769.686C160.726,767.576 160.725,764.152 159.505,762.039L151.229,747.706C150.012,745.595 151,743.883 153.437,743.883L249.359,743.883C251.797,743.883 252.783,742.172 251.565,740.06L245.783,730.052C244.563,727.939 241.6,726.229 239.163,726.229Z" style="fill-rule:nonzero;fill:white"/>
                    <path d="M731.513,661.464C730.295,659.353 728.317,659.353 727.1,661.464L694.46,717.992C693.242,720.104 694.23,721.816 696.668,721.816L708.231,721.816C710.668,721.816 713.632,720.104 714.852,717.992L727.1,696.773C728.317,694.662 730.295,694.662 731.513,696.773L779.379,779.693C780.598,781.805 782.573,781.805 783.791,779.696L789.574,769.684C790.793,767.573 790.794,764.152 789.574,762.039L731.513,661.464Z" style="fill-rule:nonzero;fill:white"/>
                    <path d="M739.163,726.229L622.872,726.229C620.435,726.229 619.447,727.939 620.666,730.052L649.331,779.693C650.551,781.805 652.524,781.804 653.742,779.693L659.509,769.686C660.726,767.576 660.725,764.152 659.505,762.039L651.229,747.706C650.012,745.595 651,743.883 653.437,743.883L749.359,743.883C751.797,743.883 752.783,742.172 751.565,740.06L745.783,730.052C744.563,727.939 741.6,726.229 739.163,726.229Z" style="fill-rule:nonzero;fill:white"/>
                    <path d="M651.229,828.155L695.144,752.118C696.364,750.008 695.375,748.297 692.938,748.297L681.374,748.297C678.938,748.297 675.974,750.008 674.756,752.12L620.666,845.81C619.447,847.921 620.435,849.632 622.872,849.632L680.184,849.632C682.619,849.632 683.608,847.921 682.389,845.81L676.609,835.802C675.39,833.689 672.425,831.979 669.987,831.979L653.437,831.979C651,831.979 650.012,830.267 651.229,828.155Z" style="fill-rule:nonzero;fill:white"/>
                </g>
            </g>
        </g>
    </g>
</svg>
