<?xml version="1.0" encoding="utf-8"?>
<!-- Generator: Adobe Illustrator 27.0.0, SVG Export Plug-In . SVG Version: 6.00 Build 0)  -->
<svg version="1.1" id="Layer_1" xmlns="http://www.w3.org/2000/svg" xmlns:xlink="http://www.w3.org/1999/xlink" x="0px" y="0px"
	 viewBox="0 0 841.89 595.28" style="enable-background:new 0 0 841.89 595.28;" xml:space="preserve">
<style type="text/css">
	.st0{fill:none;stroke:#000000;stroke-width:5;stroke-linecap:round;stroke-linejoin:round;stroke-miterlimit:10;}
</style>
<line class="st0" x1="705.09" y1="259.64" x2="705.09" y2="235.74"/>
<line class="st0" x1="689.47" y1="235.74" x2="717.14" y2="235.74"/>
<line class="st0" x1="682.12" y1="235.74" x2="682.12" y2="260.58"/>
<line class="st0" x1="664.43" y1="260.58" x2="665.56" y2="235.74"/>
<line class="st0" x1="645.42" y1="235.74" x2="674.78" y2="235.74"/>
<g>
	<g>
		<path d="M544.34,274.38c3.22,0,3.22-5,0-5C541.12,269.38,541.11,274.38,544.34,274.38L544.34,274.38z"/>
	</g>
</g>
<g>
	<g>
		<path d="M460.76,281.53c3.22,0,3.22-5,0-5C457.54,276.53,457.54,281.53,460.76,281.53L460.76,281.53z"/>
	</g>
</g>
<path class="st0" d="M258.97,237.24c0,0,151.72-7.53,147.95,0c-3.76,7.53-66.26,21.08-66.26,21.08s84.71,6.4,84.33,37.27
	c-0.38,30.87-51.2,62.12-92.24,48.56s127.25-62.48,123.48-57.03c-3.76,5.45-15.31,17.12,0.06,8.84
	c15.37-8.28,63.18-47.44,63.18-47.44s-45.55,43.58-34.64,42.12c10.92-1.46,64.38-39.86,64.38-39.86s-39.53,38.04-29.74,36.34
	c9.79-1.7,20.71-8.1,20.71-8.1s-9.22,13.55,0.19,9.79c9.41-3.76,23.53-9.98,23.53-9.98s-6.4,10.16,0.94,6.78
	c7.34-3.39,17.13-7.72,17.13-7.72s-5.46,11.67,4.52,10.16c9.98-1.51,24.47-10.73,20.89-11.86c-3.58-1.13-15.62,12.8-4.52,11.86
	c11.11-0.94,18.45-10.16,18.45-10.16s-52.52,72.09-61.36,65.32c-8.85-6.78,52.71-50.62,64-56.09c11.29-5.47,26.92-14.31,21.46-13.94
	s-4.71,4.14-0.56,6.59s2.82,11.95-7.34,10.87c-10.16-1.08,71.34-10.12,141.36-9.18"/>
<line class="st0" x1="380.2" y1="204.49" x2="282.31" y2="359.6"/>
<path class="st0" d="M207.02,220.68c0,0-88.09,134.4-81.69,132.89c6.4-1.51,94.49-113.69-65.88-95.25c0,0,199.91-32.75,234.92,11.29
	s-99.25,98.81-143.06,68.14c-18.82-13.18,621.18-44.8,621.18-44.8s-138.92,11.67-159.25,25.22"/>
</svg>
